# xmcd
# 
# Track frame offsets:
#     150
#     16635
#     33250
#     62042
#     73475
#     88672
#     105097
#     127740
#     144862
#     165712
# 
# Disc length: 2371
# 
# Revision: 2
# Processed by: cddbd v1.5.2PL0 Copyright (c) Steve Scherf et al.
# Submitted via: fre:ac v1.0.31
# 
DISCID=7409410a
DTITLE=Columbia Blues - James Cotton High Compression
DYEAR=0
DGENRE=Blues
TTITLE0=Diggin' My Potatoes
TTITLE1=Ying Yang
TTITLE2=23 Hours Too Long
TTITLE3=No More Doggin'
TTITLE4=No Cuttin' Loose
TTITLE5=Ain't Doin' Too Bad
TTITLE6=Sunny Road
TTITLE7=Superharp
TTITLE8=Easy Loving
TTITLE9=High Compression
EXTD=The James Cotton Chicago Blues All-Stars\nJames Cotton, Harmonica and Vocals\nMagic Slim, Guitar\nPinetop Perkins, Piano\nAron Burton, Bass\nRobert Covington, Drums\n\nThe James Cotton Band\nJames Cotton, Harmonica and Vocals\nMichael Coleman, Guitar\nEd
EXTD=die Harsch, Keyboards\nDouglas Fagen, Tenor Sax\nNoel Neal, Bass\nRay Allison, Drums\nwith\nDanny Fields, Trumpet\nJohnny Cotton, Trombone\n\nArranged by James Cotton and Michael Coleman\nHorns arranged by Douglas Fagen\n\nProduced by Bruce Iglauer and J
EXTD=ames Cotton\nRecorded at Streeterville Studios, Chicago\nEngineered and mixed by Justin Niebank\n\nJames Cotton is managed by Gordon Kennerly (312) 238-9250
EXTT0=The James Cotton Chicago Blues All-Stars
EXTT1=The James Cotton Band
EXTT2=The James Cotton Chicago Blues All-Stars
EXTT3=The James Cotton Chicago Blues All-Stars
EXTT4=The James Cotton Band
EXTT5=The James Cotton Band
EXTT6=The James Cotton Chicago Blues All-Stars
EXTT7=The James Cotton Band
EXTT8=The James Cotton Band
EXTT9=The James Cotton Chicago Blues All-Stars
PLAYORDER=
